<svg width="50" height="34" viewBox="0 0 50 34" fill="none" xmlns="http://www.w3.org/2000/svg">
<path d="M43.0556 0.814941H6.94444C3.11343 0.814941 0 3.92477 0 7.75136V26.2485C0 30.0751 3.11343 33.1849 6.94444 33.1849H43.0556C46.8866 33.1849 50 30.0751 50 26.2485V7.75136C50 3.92477 46.8866 0.814941 43.0556 0.814941ZM38.4259 19.3121C35.4051 19.3121 32.8356 17.3814 31.875 14.6878H30.0926C23.7153 14.6878 18.5185 19.8785 18.5185 26.2485C18.5185 27.5201 17.4769 28.5606 16.2037 28.5606C14.9306 28.5606 13.8889 27.5201 13.8889 26.2485C13.8889 22.4219 10.7755 19.3121 6.94444 19.3121C5.6713 19.3121 4.62963 18.2716 4.62963 16.9999C4.62963 15.7282 5.6713 14.6878 6.94444 14.6878C10.463 14.6878 13.6111 16.26 15.7407 18.7456C18.4491 13.5895 23.8657 10.0635 30.0926 10.0635H31.875C32.8356 7.36986 35.4051 5.43922 38.4259 5.43922C42.2569 5.43922 45.3704 8.54905 45.3704 12.3756C45.3704 16.2022 42.2569 19.3121 38.4259 19.3121ZM40.7407 12.3756C40.7407 13.6473 39.6991 14.6878 38.4259 14.6878C37.1528 14.6878 36.1111 13.6473 36.1111 12.3756C36.1111 11.104 37.1528 10.0635 38.4259 10.0635C39.6991 10.0635 40.7407 11.104 40.7407 12.3756Z" fill="#00B2FF"/>
</svg>
