<svg width="360" height="218" viewBox="0 0 360 218" fill="none" xmlns="http://www.w3.org/2000/svg">
<path d="M185.738 5.33057L25.8203 63.9669L192.845 104.835L340.324 67.5206L185.738 5.33057Z" fill="#00B2FF"/>
<path d="M333.239 97.1356V106.437C332.354 106.258 331.444 106.159 330.519 106.159C329.498 106.159 328.501 106.288 327.536 106.506V99.2179L333.239 97.1356Z" fill="black"/>
<path d="M337.846 216.413C337.846 217.276 334.695 217.99 330.803 218C326.918 218.019 323.76 217.335 323.76 216.472L326.791 154.449L325.706 146.923C327.245 147.508 328.872 147.815 330.563 147.815H330.619C332.31 147.815 333.953 147.488 335.525 146.883L334.48 154.409L337.838 216.403L337.846 216.413Z" fill="black"/>
<path d="M341.943 128.364C342.551 120.564 337.957 113.629 331.683 112.874C325.408 112.118 319.829 117.829 319.222 125.63C318.615 133.43 323.208 140.365 329.483 141.121C335.757 141.876 341.336 136.165 341.943 128.364Z" fill="black"/>
<path d="M350.781 83.8085L185.898 17.0552L10.5195 82.7674L82.6635 108.013L82.6955 92.4155C82.6955 89.2623 82.7194 79.6538 113.523 69.2521C124.953 65.3849 148.778 58.9099 179.845 58.9099H180.547C211.789 59.0091 235.781 65.6626 247.299 69.6091C278.278 80.2388 278.278 89.877 278.278 93.0402V110.274L350.789 83.7986L350.781 83.8085Z" fill="black"/>
<path d="M359.871 71.037L359.847 80.5066L185.959 10.1042L0.945312 79.4258L0.977217 69.9562L186.087 0L359.871 71.037Z" fill="black"/>
<path d="M272.928 93.0501C272.928 84.116 231.572 65.7122 180.525 65.5535C129.478 65.385 88.0498 83.5111 88.0259 92.4453L87.8584 168.42V168.738H87.8823C88.9671 176.65 129.964 183.016 180.389 183.016C230.814 183.016 272.92 176.482 272.92 168.42V93.0402L272.928 93.0501ZM240.458 172.853C223.835 175.133 202.499 176.383 180.389 176.383C158.28 176.383 136.951 175.123 120.321 172.853C106.921 171.018 99.7987 168.995 96.0977 167.538C99.4716 165.198 105.398 161.985 114.291 158.683C131.089 155.867 154.499 154.112 180.389 154.112C206.28 154.112 229.618 155.857 246.456 158.673C255.365 161.975 261.299 165.188 264.681 167.538C260.98 168.986 253.857 171.008 240.458 172.853Z" fill="black"/>
</svg>
