<svg width="274" height="213" viewBox="0 0 274 213" fill="none" xmlns="http://www.w3.org/2000/svg">
<path d="M252.991 30.1637L171.926 13.1967C127.938 17.5955 36.9441 27.1473 24.8787 30.1637C12.8132 33.1801 12.3105 49.016 13.5673 56.5569L30.5343 79.1796L19.223 82.95C19.223 82.95 22.9934 120.026 19.223 124.425L151.189 154.589L252.991 124.425L260.532 99.9171L256.762 82.95L252.991 71.6387C252.991 71.6387 250.477 42.1035 252.991 30.1637Z" fill="#00B2FF"/>
<path d="M253.645 64.3139C252.543 56.0232 252.387 41.7437 260.088 36.9489C260.225 36.861 260.328 36.734 260.448 36.625C266.744 34.6113 271.101 31.7854 267.681 27.9827L174.81 0L24.4321 20.9073C24.4321 20.9073 7.21195 23.3686 8.75026 50.1223C9.58535 64.6834 14.1523 71.8345 18.1462 75.3539L5.8063 79.0728C2.3813 82.8754 6.73743 85.7022 13.0339 87.7126C13.1536 87.8249 13.2545 87.951 13.3945 88.039C21.0902 92.8378 20.942 107.116 19.8351 115.408C-7.81147 123.258 2.11271 125.816 2.11271 125.816L8.17726 127.284C3.91148 131.139 -0.324994 138.449 0.468582 152.312C2.00771 179.061 16.1521 180.907 16.1521 180.907L114.559 212.893L263.092 176.915C263.092 176.915 273.019 174.353 245.365 166.502C244.254 158.223 244.099 143.947 251.813 139.135C251.954 139.05 252.058 138.921 252.172 138.813C258.469 136.8 262.822 133.976 259.401 130.173L252.945 128.224C257.25 125.628 263.718 118.842 264.731 101.216C265.43 89.0914 262.267 81.9907 258.606 77.8104L271.367 74.7223C271.368 74.7272 281.295 72.165 253.645 64.3139ZM129.406 63.9712L154.384 58.8378L238.795 41.4914L251.371 38.9048C247.352 46.2594 247.521 56.3244 248.186 62.7935C248.331 64.2569 248.499 65.5934 248.662 66.6091L234.897 70.0317L128.356 96.5355L129.406 63.9712ZM22.1125 90.003L34.6868 92.5896L115.751 109.254L122.833 110.704L144.071 115.069L145.118 147.634L35.6179 120.392L24.8228 117.709C24.9815 116.692 25.1492 115.357 25.3014 113.889C25.9623 107.425 26.1341 97.3576 22.1125 90.003ZM17.2273 48.8347C17.0751 41.7185 18.3432 36.5721 20.9062 33.9561C22.5373 32.2859 24.4623 31.9384 25.7824 31.9384C26.48 31.9384 26.9822 32.0352 27.0164 32.0352L91.8104 53.159L124.137 63.6985L123.077 96.4907L32.3874 71.0654L27.6016 69.7248C27.4258 69.6752 27.1873 69.641 27.0033 69.6329C26.6297 69.606 17.6636 68.7807 17.2273 48.8347ZM114.793 198.685L19.3207 171.919C19.1441 171.867 18.908 171.833 18.7241 171.824C18.344 171.799 9.37373 170.975 8.93991 151.033C8.78526 143.908 10.0599 138.767 12.618 136.148C14.2532 134.478 16.179 134.131 17.4967 134.131C18.1959 134.131 18.6964 134.224 18.733 134.224L115.847 165.892L114.793 198.685ZM239.897 164.983C240.048 166.452 240.216 167.786 240.379 168.803L120.071 198.732L121.122 166.167L146.843 160.879L150.642 161.798L164.879 157.17L230.506 143.685L243.087 141.096C239.065 148.45 239.232 158.519 239.897 164.983ZM246.524 120.726C246.306 120.731 246.087 120.76 245.881 120.825L236.807 123.366L150.411 147.591L149.354 114.799L177.7 105.554L246.336 83.1701C246.345 83.166 249.946 82.3659 252.59 85.0543C255.149 87.6702 256.419 92.8167 256.269 99.9328C255.821 119.872 246.851 120.701 246.524 120.726Z" fill="#092139"/>
</svg>
