<svg width="51" height="41" viewBox="0 0 51 41" fill="none" xmlns="http://www.w3.org/2000/svg">
<path d="M45.3523 17.1184C42.7461 19.057 39.0879 21.635 37.4379 21.635C37.111 21.635 37.0061 21.5328 36.9299 21.4367C36.2561 20.5753 36.4383 17.5551 37.4728 12.4634C37.5751 11.9591 37.3187 11.452 36.8626 11.2526C36.4065 11.0521 35.8768 11.2164 35.6003 11.6427C32.0401 17.1475 30.4096 18.3022 29.6707 18.3022C28.6224 18.3022 27.5571 15.1754 26.4998 9.00752C26.4156 8.51532 26.0151 8.1566 25.5394 8.12804V8.12199C25.5294 8.12199 25.5198 8.12419 25.5098 8.12419C25.4997 8.12419 25.4886 8.12199 25.4791 8.12199V8.12804C25.005 8.1566 24.6056 8.51532 24.5198 9.00752C23.4614 15.1754 22.3951 18.3022 21.3478 18.3022C20.6084 18.3022 18.979 17.147 15.4193 11.6427C15.1433 11.2164 14.6136 11.0521 14.1565 11.2526C13.6998 11.452 13.4435 11.9591 13.5462 12.4634C14.5802 17.5551 14.764 20.5753 14.0887 21.4367C14.014 21.5334 13.9075 21.635 13.5812 21.635C11.9311 21.635 8.27293 19.0575 5.66569 17.1184C5.25357 16.8113 4.68837 16.8613 4.33081 17.2332C3.97273 17.6035 3.92558 18.1896 4.22116 18.6175C10.182 26.5235 9.06009 35.5974 9.06009 35.5974C9.03837 35.7232 9.02672 35.8517 9.02672 35.9868C9.02672 38.216 12.0365 39.0983 14.6581 39.6179C17.5466 40.192 21.351 40.5117 25.3932 40.5227V40.5238C25.4319 40.5238 25.4711 40.5238 25.5098 40.5227C25.5485 40.5238 25.5871 40.5238 25.6269 40.5238V40.5227C29.668 40.5111 33.473 40.1914 36.3604 39.6179C38.9825 39.0983 41.9929 38.2144 41.9929 35.9868C41.9929 35.8517 41.9812 35.7237 41.9595 35.5974C41.9595 35.5974 40.8381 26.5219 46.7979 18.6175C47.094 18.1901 47.0474 17.6035 46.6893 17.2332C46.3296 16.8624 45.7655 16.8119 45.3523 17.1184ZM25.6258 37.447H25.6178C25.5808 37.447 25.5453 37.4486 25.5087 37.4486C25.4716 37.4486 25.4372 37.447 25.4001 37.447H25.3922C18.9684 37.4277 14.7217 36.6526 12.8475 35.9874C14.7217 35.3211 18.9684 34.5459 25.3922 34.5273H25.4076C25.4409 34.5273 25.4743 34.5273 25.5082 34.5273C25.5421 34.5273 25.5739 34.5273 25.6088 34.5273H25.6247C32.048 34.5459 36.2942 35.3211 38.1689 35.9874C36.2953 36.6526 32.0491 37.4277 25.6258 37.447Z" fill="white"/>
<path d="M25.5077 6.82115C27.2379 6.82115 28.6404 5.36664 28.6404 3.5724C28.6404 1.77817 27.2379 0.323654 25.5077 0.323654C23.7776 0.323654 22.375 1.77817 22.375 3.5724C22.375 5.36664 23.7776 6.82115 25.5077 6.82115Z" fill="white"/>
<path d="M12.2862 10.2045C13.7279 10.2045 14.8966 8.99247 14.8966 7.49737C14.8966 6.00228 13.7279 4.79027 12.2862 4.79027C10.8445 4.79027 9.67578 6.00228 9.67578 7.49737C9.67578 8.99247 10.8445 10.2045 12.2862 10.2045Z" fill="white"/>
<path d="M38.5167 10.2045C39.9584 10.2045 41.1271 8.99247 41.1271 7.49737C41.1271 6.00228 39.9584 4.79027 38.5167 4.79027C37.075 4.79027 35.9062 6.00228 35.9062 7.49737C35.9062 8.99247 37.075 10.2045 38.5167 10.2045Z" fill="white"/>
<path d="M2.21283 17.0354C3.18469 17.0354 3.97254 16.2184 3.97254 15.2105C3.97254 14.2027 3.18469 13.3857 2.21283 13.3857C1.24097 13.3857 0.453125 14.2027 0.453125 15.2105C0.453125 16.2184 1.24097 17.0354 2.21283 17.0354Z" fill="white"/>
<path d="M48.7519 17.0354C49.7238 17.0354 50.5116 16.2184 50.5116 15.2105C50.5116 14.2027 49.7238 13.3857 48.7519 13.3857C47.78 13.3857 46.9922 14.2027 46.9922 15.2105C46.9922 16.2184 47.78 17.0354 48.7519 17.0354Z" fill="white"/>
</svg>
