<svg width="46" height="46" viewBox="0 0 46 46" fill="none" xmlns="http://www.w3.org/2000/svg">
<path d="M23 0.5C18.5499 0.5 14.1998 1.8196 10.4997 4.29193C6.79957 6.76426 3.91569 10.2783 2.21272 14.3896C0.509749 18.501 0.0641739 23.025 0.932341 27.3895C1.80051 31.7541 3.94343 35.7632 7.09011 38.9099C10.2368 42.0566 14.2459 44.1995 18.6105 45.0677C22.975 45.9358 27.499 45.4902 31.6104 43.7873C35.7217 42.0843 39.2357 39.2004 41.7081 35.5003C44.1804 31.8002 45.5 27.4501 45.5 23C45.5 20.0453 44.918 17.1194 43.7873 14.3896C42.6566 11.6598 40.9992 9.17941 38.9099 7.0901C36.8206 5.00078 34.3402 3.34344 31.6104 2.21271C28.8806 1.08198 25.9547 0.5 23 0.5ZM15.1925 26.3075C15.3583 26.462 15.4913 26.6483 15.5835 26.8553C15.6757 27.0623 15.7253 27.2857 15.7293 27.5123C15.7333 27.7389 15.6917 27.964 15.6068 28.1741C15.5219 28.3842 15.3956 28.5751 15.2353 28.7353C15.0751 28.8956 14.8842 29.0219 14.6741 29.1068C14.464 29.1916 14.2389 29.2333 14.0123 29.2293C13.7858 29.2253 13.5623 29.1757 13.3553 29.0835C13.1483 28.9913 12.962 28.8583 12.8075 28.6925L8.30751 24.1925C8.15076 24.036 8.02642 23.8501 7.94157 23.6455C7.85673 23.4408 7.81306 23.2215 7.81306 23C7.81306 22.7785 7.85673 22.5591 7.94157 22.3545C8.02642 22.1499 8.15076 21.964 8.30751 21.8075L12.8075 17.3075C12.962 17.1417 13.1483 17.0087 13.3553 16.9165C13.5623 16.8243 13.7858 16.7747 14.0123 16.7707C14.2389 16.7667 14.464 16.8083 14.6741 16.8932C14.8842 16.9781 15.0751 17.1044 15.2353 17.2647C15.3956 17.4249 15.5219 17.6158 15.6068 17.8259C15.6917 18.036 15.7333 18.2611 15.7293 18.4877C15.7253 18.7143 15.6757 18.9377 15.5835 19.1447C15.4913 19.3517 15.3583 19.538 15.1925 19.6925L11.8873 23L15.1925 26.3075ZM26.8003 18.4167L22.3003 28.9152C22.1187 29.3188 21.7858 29.635 21.3733 29.7955C20.9609 29.956 20.5019 29.948 20.0952 29.7733C19.6886 29.5986 19.3669 29.2712 19.1994 28.8615C19.0319 28.4519 19.032 27.9928 19.1998 27.5832L23.6998 17.0847C23.8813 16.6811 24.2142 16.365 24.6267 16.2045C25.0391 16.044 25.4981 16.052 25.9048 16.2267C26.3114 16.4014 26.6331 16.7288 26.8006 17.1385C26.9681 17.5481 26.968 18.0072 26.8003 18.4167ZM37.6925 24.1925L33.1925 28.6925C33.038 28.8583 32.8517 28.9913 32.6447 29.0835C32.4377 29.1757 32.2143 29.2253 31.9877 29.2293C31.7611 29.2333 31.536 29.1916 31.3259 29.1068C31.1158 29.0219 30.9249 28.8956 30.7647 28.7353C30.6044 28.5751 30.4781 28.3842 30.3932 28.1741C30.3084 27.964 30.2667 27.7389 30.2707 27.5123C30.2747 27.2857 30.3243 27.0623 30.4165 26.8553C30.5087 26.6483 30.6417 26.462 30.8075 26.3075L34.1128 23L30.8075 19.6925C30.6417 19.538 30.5087 19.3517 30.4165 19.1447C30.3243 18.9377 30.2747 18.7143 30.2707 18.4877C30.2667 18.2611 30.3084 18.036 30.3932 17.8259C30.4781 17.6158 30.6044 17.4249 30.7647 17.2647C30.9249 17.1044 31.1158 16.9781 31.3259 16.8932C31.536 16.8083 31.7611 16.7667 31.9877 16.7707C32.2143 16.7747 32.4377 16.8243 32.6447 16.9165C32.8517 17.0087 33.038 17.1417 33.1925 17.3075L37.6925 21.8075C37.8492 21.964 37.9736 22.1499 38.0584 22.3545C38.1433 22.5591 38.1869 22.7785 38.1869 23C38.1869 23.2215 38.1433 23.4408 38.0584 23.6455C37.9736 23.8501 37.8492 24.036 37.6925 24.1925Z" fill="#00B2FF"/>
</svg>
