<svg width="35" height="41" viewBox="0 0 35 41" fill="none" xmlns="http://www.w3.org/2000/svg">
<path d="M19.7843 40.9367C20.1181 40.9367 20.4111 40.7327 20.5413 40.4228C20.5413 40.4228 21.567 37.8531 22.6007 35.2753C23.1949 33.7906 26.0195 34.0191 27.7045 34.1496C28.2661 34.1985 28.7057 34.2312 29.0475 34.2148C29.6662 34.1822 31.0906 34.1006 31.7418 24.5236L32.8 24.2544C33.378 24.1076 33.8501 23.7079 34.0861 23.1532C34.3222 22.5985 34.2815 21.9785 33.9885 21.4564L31.0092 16.1784C30.9848 16.1295 30.9685 16.0805 30.9685 16.0316V14.3756C30.9685 6.52803 24.2206 0.148804 15.9179 0.148804C7.61517 0.148804 0.867188 6.52803 0.867188 14.3756C0.867188 19.0499 2.51959 22.5006 3.96849 25.5515C4.44875 26.5467 4.89644 27.4848 5.26273 28.4148C6.4186 31.3189 4.18827 36.9966 3.22776 38.9381C3.10566 39.1828 3.12194 39.4765 3.26032 39.713C3.3987 39.9496 3.64289 40.0965 3.91965 40.1128L19.7436 40.9367H19.7843ZM18.5959 28.2027C18.5959 28.6514 18.2296 29.0185 17.7819 29.0185H13.8422C13.3945 29.0185 13.0282 28.6514 13.0282 28.2027V24.2626C13.0282 23.8139 13.3945 23.4468 13.8422 23.4468H17.7819C18.2296 23.4468 18.5959 23.8139 18.5959 24.2626V28.2027ZM18.5959 21.0159C18.5959 21.4645 18.2296 21.8316 17.7819 21.8316H13.8422C13.3945 21.8316 13.0282 21.4645 13.0282 21.0159V19.8738C13.0282 17.5979 14.4771 15.5911 16.6342 14.8814C17.8226 14.4898 18.5552 13.3314 18.4087 12.0752C18.2866 10.8923 17.2935 9.90526 16.1214 9.7829C15.3562 9.69317 14.6318 9.92158 14.0701 10.4273C13.5166 10.925 13.191 11.6428 13.191 12.3852C13.191 12.8338 12.8328 13.2009 12.377 13.2009H8.44544C7.99774 13.2009 7.63145 12.8338 7.63145 12.3852C7.63145 10.0603 8.62452 7.83324 10.3583 6.27514C12.0758 4.73336 14.3794 3.97471 16.7319 4.23575C20.4925 4.65179 23.5287 7.69456 23.9438 11.4634C24.3671 15.2893 22.1693 18.8052 18.5959 20.0941V21.0159Z" fill="white"/>
</svg>
