<svg width="38" height="39" viewBox="0 0 38 39" fill="none" xmlns="http://www.w3.org/2000/svg">
<path d="M18.5556 0.975281C8.33282 0.975281 0.015625 9.29247 0.015625 19.5152C0.015625 29.738 8.33282 38.0552 18.5556 38.0552C28.7783 38.0552 37.0955 29.738 37.0955 19.5152C37.0955 9.29247 28.7783 0.975281 18.5556 0.975281ZM18.5556 34.9652C10.0362 34.9652 3.10564 28.0345 3.10564 19.5152C3.10564 10.9959 10.0362 4.0653 18.5556 4.0653C27.0749 4.0653 34.0055 10.9959 34.0055 19.5152C34.0055 28.0345 27.0749 34.9652 18.5556 34.9652Z" fill="white"/>
<path d="M27.4987 9.53845L15.1229 15.7343C14.9735 15.8089 14.852 15.9304 14.7774 16.0798L8.58156 28.4556C8.43295 28.7528 8.49103 29.1119 8.7264 29.3473C8.87501 29.4959 9.07265 29.5736 9.27261 29.5736C9.39029 29.5736 9.5087 29.5472 9.61813 29.4921L21.9939 23.2963C22.1433 23.2217 22.2648 23.1002 22.3394 22.9508L28.5352 10.575C28.6839 10.2778 28.6258 9.91867 28.3904 9.6833C28.1558 9.44793 27.7944 9.39057 27.4987 9.53845ZM18.5584 21.0602C17.7067 21.0602 17.0134 20.3669 17.0134 19.5153C17.0134 18.6636 17.7067 17.9703 18.5584 17.9703C19.41 17.9703 20.1033 18.6636 20.1033 19.5153C20.1033 20.3669 19.41 21.0602 18.5584 21.0602Z" fill="white"/>
</svg>
