<svg width="52" height="33" viewBox="0 0 52 33" fill="none" xmlns="http://www.w3.org/2000/svg">
<path d="M11.8555 18.5086V26.4151C11.8555 26.4151 19.4372 23.2566 26.1595 23.2566C32.8818 23.2566 40.465 26.4151 40.465 26.4151V18.3982C40.465 18.3982 33.2318 14.5726 26.0475 14.5726C18.8663 14.5695 11.8555 18.5086 11.8555 18.5086Z" fill="white"/>
<path d="M48.4939 16.6258L51.3386 15.0962L48.4939 13.5209V12.7734C48.4939 12.7734 49.2949 8.71133 44.7424 10.8354C44.5106 10.9616 44.3861 11.0893 44.3356 11.2139L25.5611 0.801636L0.890625 14.9211L10.2069 19.1535V17.78C10.2069 17.78 18.0236 13.3915 26.0358 13.3915C34.0464 13.3915 42.109 17.657 42.109 17.657V20.0555L47.2528 17.2928C47.2528 20.4923 47.2528 27.336 47.2528 28.4777H45.5403V32.453L47.8174 30.8793L50.3451 32.453V28.4761H48.4939V16.6258ZM47.2513 12.0827C47.2513 12.1789 47.2513 12.4438 47.2513 12.8318L45.7501 11.9992C46.2973 11.6365 47.2513 11.1334 47.2513 12.0827ZM46.7435 16.4696C46.0796 16.4696 45.5388 15.9319 45.5388 15.2681C45.5388 14.6042 46.0796 14.0649 46.7435 14.0649C47.409 14.0649 47.9467 14.6042 47.9467 15.2681C47.9467 15.9319 47.409 16.4696 46.7435 16.4696Z" fill="white"/>
</svg>
