<svg width="120" height="41" viewBox="0 0 120 41" fill="none" xmlns="http://www.w3.org/2000/svg">
<path d="M11.8101 7.89648V34.2965H16.7967V23.4065H28.6034V34.2965H33.5901V7.89648H28.6034V18.7498H16.7967V7.89648H11.8101Z" fill="white"/>
<path d="M11.8101 7.89648V34.2965H16.7967V23.4065H28.6034V34.2965H33.5901V7.89648H28.6034V18.7498H16.7967V7.89648H11.8101Z" fill="url(#paint0_radial_239_2763)"/>
<path d="M11.8101 7.89648V34.2965H16.7967V23.4065H28.6034V34.2965H33.5901V7.89648H28.6034V18.7498H16.7967V7.89648H11.8101Z" fill="url(#paint1_radial_239_2763)"/>
<path d="M46.7955 34.2965H43.3336V29.6032H46.7955C47.1255 29.6032 47.5716 29.5971 48.1339 29.5849C48.6961 29.5604 49.2033 29.5054 49.6555 29.4199C50.8044 29.1876 51.7394 28.6499 52.4605 27.8065C53.1939 26.9632 53.7316 25.9487 54.0739 24.7632C54.4283 23.5776 54.6055 22.3554 54.6055 21.0965C54.6055 19.7765 54.4222 18.5237 54.0555 17.3382C53.7011 16.1526 53.1572 15.1504 52.4239 14.3315C51.6905 13.5126 50.7677 12.9932 49.6555 12.7732C49.2033 12.6754 48.6961 12.6204 48.1339 12.6082C47.5716 12.5959 47.1255 12.5898 46.7955 12.5898H43.3336V7.89648H46.7955C47.0033 7.89648 47.4311 7.9026 48.0788 7.91482C48.7266 7.92704 49.35 7.96982 49.9489 8.04315C52.0755 8.29982 53.8783 9.03926 55.3572 10.2615C56.8361 11.4837 57.9605 13.0359 58.7305 14.9182C59.5005 16.8004 59.8855 18.8598 59.8855 21.0965C59.8855 23.3332 59.5005 25.3926 58.7305 27.2749C57.9605 29.1571 56.8361 30.7093 55.3572 31.9315C53.8783 33.1538 52.0755 33.8932 49.9489 34.1499C49.35 34.2232 48.7266 34.266 48.0788 34.2782C47.4311 34.2904 47.0033 34.2965 46.7955 34.2965Z" fill="white"/>
<path d="M46.7955 34.2965H43.3336V29.6032H46.7955C47.1255 29.6032 47.5716 29.5971 48.1339 29.5849C48.6961 29.5604 49.2033 29.5054 49.6555 29.4199C50.8044 29.1876 51.7394 28.6499 52.4605 27.8065C53.1939 26.9632 53.7316 25.9487 54.0739 24.7632C54.4283 23.5776 54.6055 22.3554 54.6055 21.0965C54.6055 19.7765 54.4222 18.5237 54.0555 17.3382C53.7011 16.1526 53.1572 15.1504 52.4239 14.3315C51.6905 13.5126 50.7677 12.9932 49.6555 12.7732C49.2033 12.6754 48.6961 12.6204 48.1339 12.6082C47.5716 12.5959 47.1255 12.5898 46.7955 12.5898H43.3336V7.89648H46.7955C47.0033 7.89648 47.4311 7.9026 48.0788 7.91482C48.7266 7.92704 49.35 7.96982 49.9489 8.04315C52.0755 8.29982 53.8783 9.03926 55.3572 10.2615C56.8361 11.4837 57.9605 13.0359 58.7305 14.9182C59.5005 16.8004 59.8855 18.8598 59.8855 21.0965C59.8855 23.3332 59.5005 25.3926 58.7305 27.2749C57.9605 29.1571 56.8361 30.7093 55.3572 31.9315C53.8783 33.1538 52.0755 33.8932 49.9489 34.1499C49.35 34.2232 48.7266 34.266 48.0788 34.2782C47.4311 34.2904 47.0033 34.2965 46.7955 34.2965Z" fill="url(#paint2_radial_239_2763)"/>
<path d="M46.7955 34.2965H43.3336V29.6032H46.7955C47.1255 29.6032 47.5716 29.5971 48.1339 29.5849C48.6961 29.5604 49.2033 29.5054 49.6555 29.4199C50.8044 29.1876 51.7394 28.6499 52.4605 27.8065C53.1939 26.9632 53.7316 25.9487 54.0739 24.7632C54.4283 23.5776 54.6055 22.3554 54.6055 21.0965C54.6055 19.7765 54.4222 18.5237 54.0555 17.3382C53.7011 16.1526 53.1572 15.1504 52.4239 14.3315C51.6905 13.5126 50.7677 12.9932 49.6555 12.7732C49.2033 12.6754 48.6961 12.6204 48.1339 12.6082C47.5716 12.5959 47.1255 12.5898 46.7955 12.5898H43.3336V7.89648H46.7955C47.0033 7.89648 47.4311 7.9026 48.0788 7.91482C48.7266 7.92704 49.35 7.96982 49.9489 8.04315C52.0755 8.29982 53.8783 9.03926 55.3572 10.2615C56.8361 11.4837 57.9605 13.0359 58.7305 14.9182C59.5005 16.8004 59.8855 18.8598 59.8855 21.0965C59.8855 23.3332 59.5005 25.3926 58.7305 27.2749C57.9605 29.1571 56.8361 30.7093 55.3572 31.9315C53.8783 33.1538 52.0755 33.8932 49.9489 34.1499C49.35 34.2232 48.7266 34.266 48.0788 34.2782C47.4311 34.2904 47.0033 34.2965 46.7955 34.2965Z" fill="url(#paint3_radial_239_2763)"/>
<path fill-rule="evenodd" clip-rule="evenodd" d="M75.6513 34.2965V29.9952C75.1139 30.7132 74.4985 31.3586 73.8053 31.9315C72.3264 33.1538 70.5236 33.8932 68.3969 34.1499C67.798 34.2232 67.1747 34.266 66.5269 34.2782C65.8792 34.2904 65.4514 34.2965 65.2436 34.2965H61.7816V29.6032H65.2436C65.5736 29.6032 66.0197 29.5971 66.5819 29.5849C67.1442 29.5604 67.6514 29.5054 68.1036 29.4199C69.2525 29.1876 70.1875 28.6499 70.9086 27.8065C71.6419 26.9632 72.1797 25.9487 72.5219 24.7632C72.8764 23.5776 73.0536 22.3554 73.0536 21.0965C73.0536 19.7765 72.8703 18.5237 72.5036 17.3382C72.1492 16.1526 71.6053 15.1504 70.8719 14.3315C70.1386 13.5126 69.2158 12.9932 68.1036 12.7732C67.6514 12.6754 67.1442 12.6204 66.5819 12.6082C66.0197 12.5959 65.5736 12.5898 65.2436 12.5898H61.7816V7.89648H65.2436C65.4514 7.89648 65.8792 7.9026 66.5269 7.91482C67.1747 7.92704 67.798 7.96982 68.3969 8.04315C70.5236 8.29982 72.3264 9.03926 73.8053 10.2615C74.4985 10.8344 75.1139 11.4798 75.6513 12.1978V7.89648H95.005L106.482 25.4965V7.89648H111.542V34.2965H106.482L95.005 16.6965V34.2965H75.6513ZM80.638 12.5532H89.945V18.1998H80.638V12.5532ZM80.638 22.8565H89.945V29.6399H80.638V22.8565Z" fill="white"/>
<path fill-rule="evenodd" clip-rule="evenodd" d="M75.6513 34.2965V29.9952C75.1139 30.7132 74.4985 31.3586 73.8053 31.9315C72.3264 33.1538 70.5236 33.8932 68.3969 34.1499C67.798 34.2232 67.1747 34.266 66.5269 34.2782C65.8792 34.2904 65.4514 34.2965 65.2436 34.2965H61.7816V29.6032H65.2436C65.5736 29.6032 66.0197 29.5971 66.5819 29.5849C67.1442 29.5604 67.6514 29.5054 68.1036 29.4199C69.2525 29.1876 70.1875 28.6499 70.9086 27.8065C71.6419 26.9632 72.1797 25.9487 72.5219 24.7632C72.8764 23.5776 73.0536 22.3554 73.0536 21.0965C73.0536 19.7765 72.8703 18.5237 72.5036 17.3382C72.1492 16.1526 71.6053 15.1504 70.8719 14.3315C70.1386 13.5126 69.2158 12.9932 68.1036 12.7732C67.6514 12.6754 67.1442 12.6204 66.5819 12.6082C66.0197 12.5959 65.5736 12.5898 65.2436 12.5898H61.7816V7.89648H65.2436C65.4514 7.89648 65.8792 7.9026 66.5269 7.91482C67.1747 7.92704 67.798 7.96982 68.3969 8.04315C70.5236 8.29982 72.3264 9.03926 73.8053 10.2615C74.4985 10.8344 75.1139 11.4798 75.6513 12.1978V7.89648H95.005L106.482 25.4965V7.89648H111.542V34.2965H106.482L95.005 16.6965V34.2965H75.6513ZM80.638 12.5532H89.945V18.1998H80.638V12.5532ZM80.638 22.8565H89.945V29.6399H80.638V22.8565Z" fill="url(#paint4_radial_239_2763)"/>
<path fill-rule="evenodd" clip-rule="evenodd" d="M75.6513 34.2965V29.9952C75.1139 30.7132 74.4985 31.3586 73.8053 31.9315C72.3264 33.1538 70.5236 33.8932 68.3969 34.1499C67.798 34.2232 67.1747 34.266 66.5269 34.2782C65.8792 34.2904 65.4514 34.2965 65.2436 34.2965H61.7816V29.6032H65.2436C65.5736 29.6032 66.0197 29.5971 66.5819 29.5849C67.1442 29.5604 67.6514 29.5054 68.1036 29.4199C69.2525 29.1876 70.1875 28.6499 70.9086 27.8065C71.6419 26.9632 72.1797 25.9487 72.5219 24.7632C72.8764 23.5776 73.0536 22.3554 73.0536 21.0965C73.0536 19.7765 72.8703 18.5237 72.5036 17.3382C72.1492 16.1526 71.6053 15.1504 70.8719 14.3315C70.1386 13.5126 69.2158 12.9932 68.1036 12.7732C67.6514 12.6754 67.1442 12.6204 66.5819 12.6082C66.0197 12.5959 65.5736 12.5898 65.2436 12.5898H61.7816V7.89648H65.2436C65.4514 7.89648 65.8792 7.9026 66.5269 7.91482C67.1747 7.92704 67.798 7.96982 68.3969 8.04315C70.5236 8.29982 72.3264 9.03926 73.8053 10.2615C74.4985 10.8344 75.1139 11.4798 75.6513 12.1978V7.89648H95.005L106.482 25.4965V7.89648H111.542V34.2965H106.482L95.005 16.6965V34.2965H75.6513ZM80.638 12.5532H89.945V18.1998H80.638V12.5532ZM80.638 22.8565H89.945V29.6399H80.638V22.8565Z" fill="url(#paint5_radial_239_2763)"/>
<path d="M38.3332 11.3796C37.1826 11.3796 36.2498 10.4468 36.2498 9.29622C36.2498 8.14563 37.1826 7.21288 38.3332 7.21288C39.4838 7.21288 40.4165 8.14563 40.4165 9.29622C40.4165 10.4468 39.4838 11.3796 38.3332 11.3796Z" fill="white" stroke="white" stroke-width="0.833335"/>
<defs>
<radialGradient id="paint0_radial_239_2763" cx="0" cy="0" r="1" gradientUnits="userSpaceOnUse" gradientTransform="translate(40.0002 4.29621) rotate(70.2777) scale(93.8381 93.8381)">
<stop stop-color="white"/>
<stop offset="1" stop-color="white" stop-opacity="0"/>
</radialGradient>
<radialGradient id="paint1_radial_239_2763" cx="0" cy="0" r="1" gradientUnits="userSpaceOnUse" gradientTransform="translate(110 29.2963) rotate(122.471) scale(21.7307 21.7307)">
<stop stop-color="white"/>
<stop offset="1" stop-color="white" stop-opacity="0"/>
</radialGradient>
<radialGradient id="paint2_radial_239_2763" cx="0" cy="0" r="1" gradientUnits="userSpaceOnUse" gradientTransform="translate(40.0002 4.29621) rotate(70.2777) scale(93.8381 93.8381)">
<stop stop-color="white"/>
<stop offset="1" stop-color="white" stop-opacity="0"/>
</radialGradient>
<radialGradient id="paint3_radial_239_2763" cx="0" cy="0" r="1" gradientUnits="userSpaceOnUse" gradientTransform="translate(110 29.2963) rotate(122.471) scale(21.7307 21.7307)">
<stop stop-color="white"/>
<stop offset="1" stop-color="white" stop-opacity="0"/>
</radialGradient>
<radialGradient id="paint4_radial_239_2763" cx="0" cy="0" r="1" gradientUnits="userSpaceOnUse" gradientTransform="translate(40.0002 4.29621) rotate(70.2777) scale(93.8381 93.8381)">
<stop stop-color="white"/>
<stop offset="1" stop-color="white" stop-opacity="0"/>
</radialGradient>
<radialGradient id="paint5_radial_239_2763" cx="0" cy="0" r="1" gradientUnits="userSpaceOnUse" gradientTransform="translate(110 29.2963) rotate(122.471) scale(21.7307 21.7307)">
<stop stop-color="white"/>
<stop offset="1" stop-color="white" stop-opacity="0"/>
</radialGradient>
</defs>
</svg>
