<svg width="45" height="46" viewBox="0 0 45 46" fill="none" xmlns="http://www.w3.org/2000/svg">
<path d="M39.6335 14.6947C39.4238 6.881 33.0005 0.5 25.1367 0.5C19.6508 0.5 14.6839 3.66372 12.2185 8.5032C8.62907 8.36278 5.58552 11.154 5.373 14.6919C2.17495 16.205 0 19.4298 0 23C0 28.088 4.22836 32.3164 9.31641 32.3164H13.2715V40.2266H10.392C9.84581 38.6953 8.3963 37.5898 6.67969 37.5898C4.4989 37.5898 2.72461 39.3641 2.72461 41.5449C2.72461 43.7257 4.4989 45.5 6.67969 45.5C8.3963 45.5 9.84581 44.3945 10.392 42.8633H15.9082V32.3164H21.1816V37.8326C19.6504 38.3788 18.5449 39.8283 18.5449 41.5449C18.5449 43.7257 20.3192 45.5 22.5 45.5C24.6808 45.5 26.4551 43.7257 26.4551 41.5449C26.4551 39.8283 25.3496 38.3788 23.8184 37.8326V32.3164H29.0918V42.8633H34.608C35.1542 44.3945 36.6037 45.5 38.3203 45.5C40.5011 45.5 42.2754 43.7257 42.2754 41.5449C42.2754 39.3641 40.7356 37.5898 38.3203 37.5898C36.6037 37.5898 35.1542 38.6953 34.608 40.2266H31.7285V32.3164H35.6836C40.7716 32.3164 45 28.088 45 23C45 19.4325 42.8278 16.2087 39.6335 14.6947ZM23.6302 27.5511C23.1307 26.735 21.869 26.735 21.3694 27.5511L19.1217 26.1737C20.5791 23.7917 24.4209 23.7917 25.8783 26.1737L23.6302 27.5511ZM28.1274 24.7987C26.9158 22.8184 24.8123 21.6353 22.5 21.6353C20.1877 21.6353 18.0842 22.8184 16.8726 24.7987L14.6221 23.4237C16.3164 20.653 19.2621 18.9986 22.5 18.9986C25.7382 18.9986 28.6836 20.653 30.3782 23.4237L28.1274 24.7987ZM32.626 22.0473C30.45 18.4874 26.6648 16.3619 22.5 16.3619C18.3352 16.3619 14.55 18.4874 12.374 22.0473L10.1236 20.6723C12.7836 16.322 17.4096 13.7251 22.5 13.7251C27.5904 13.7251 32.2164 16.322 34.8764 20.6723L32.626 22.0473Z" fill="#00B2FF"/>
</svg>
