<svg width="28" height="28" viewBox="0 0 28 28" fill="none" xmlns="http://www.w3.org/2000/svg">
<path d="M24.6609 8.83224C24.5303 3.9704 20.5337 0 15.6406 0C12.2271 0 9.13666 1.96854 7.60263 4.97977C5.3692 4.8924 3.47543 6.62915 3.3432 8.83054C1.3533 9.77197 0 11.7785 0 14C0 17.1659 2.63098 19.7969 5.79688 19.7969H8.25781V24.7188H6.46616C6.12628 23.766 5.22437 23.0781 4.15625 23.0781C2.79932 23.0781 1.69531 24.1821 1.69531 25.5391C1.69531 26.896 2.79932 28 4.15625 28C5.22437 28 6.12628 27.3121 6.46616 26.3594H9.89844V19.7969H13.1797V23.2292C12.2269 23.569 11.5391 24.4709 11.5391 25.5391C11.5391 26.896 12.6431 28 14 28C15.3569 28 16.4609 26.896 16.4609 25.5391C16.4609 24.4709 15.7731 23.569 14.8203 23.2292V19.7969H18.1016V26.3594H21.5338C21.8737 27.3121 22.7756 28 23.8438 28C25.2007 28 26.3047 26.896 26.3047 25.5391C26.3047 24.1821 25.3466 23.0781 23.8438 23.0781C22.7756 23.0781 21.8737 23.766 21.5338 24.7188H19.7422V19.7969H22.2031C25.369 19.7969 28 17.1659 28 14C28 11.7802 26.6484 9.77432 24.6609 8.83224ZM14.7032 16.8318C14.3924 16.324 13.6074 16.324 13.2965 16.8318L11.8979 15.9747C12.8048 14.4926 15.1952 14.4926 16.1021 15.9747L14.7032 16.8318ZM17.5015 15.1192C16.7476 13.887 15.4388 13.1508 14 13.1508C12.5612 13.1508 11.2524 13.887 10.4985 15.1192L9.09821 14.2636C10.1524 12.5397 11.9853 11.5102 14 11.5102C16.0149 11.5102 17.8476 12.5397 18.902 14.2636L17.5015 15.1192ZM20.3006 13.4072C18.9467 11.1921 16.5915 9.8696 14 9.8696C11.4085 9.8696 9.05334 11.1921 7.6994 13.4072L6.2991 12.5516C7.95425 9.84482 10.8326 8.22897 14 8.22897C17.1674 8.22897 20.0457 9.84482 21.7009 12.5516L20.3006 13.4072Z" fill="white"/>
</svg>
