<svg width="40" height="40" viewBox="0 0 40 40" fill="none" xmlns="http://www.w3.org/2000/svg">
<path d="M30.5661 9.17948C30.9661 9.71818 31.7252 9.82428 32.2557 9.4325L36.2306 6.47782C36.7693 6.07787 36.8754 5.31879 36.4837 4.78826L36.4673 4.76377C36.0674 4.22507 35.3083 4.11896 34.7778 4.51075L30.8028 7.46543C30.2641 7.86538 30.158 8.62445 30.5498 9.15499L30.5661 9.17948Z" fill="white"/>
<path d="M31.8801 0.2254C31.3087 -0.182706 30.517 -0.0194636 30.1497 0.576371L27.497 4.86965C27.1624 5.40834 27.3011 6.11845 27.8235 6.48574C28.3949 6.89385 29.1866 6.73061 29.5539 6.13477L32.2066 1.8415C32.5411 1.3028 32.3942 0.592695 31.8801 0.2254Z" fill="white"/>
<path d="M33.7899 13.3422L38.6709 12.0362C39.3483 11.8567 39.732 11.1384 39.5034 10.4773C39.2994 9.87326 38.6627 9.53861 38.0424 9.70185L33.1615 11.0078C32.484 11.1874 32.1004 11.9056 32.3289 12.5668C32.5411 13.1626 33.1778 13.5054 33.7899 13.3422Z" fill="white"/>
<path d="M17.0086 2.04577C16.3066 2.45388 16.1189 3.34355 16.5434 3.98836C15.4986 9.98751 11.3604 15.0562 8.68323 17.8068C8.04658 17.3334 7.14875 17.3008 6.47946 17.8068L2.54532 20.7289C0.300736 22.3939 -0.164505 25.5608 1.50057 27.8054L1.18224 27.3728L0.423167 27.936C-0.0420733 28.2788 -0.140019 28.9399 0.210952 29.397L2.54532 32.5394C2.88813 33.0047 3.54926 33.1026 4.0145 32.7517L4.77358 32.1885L4.34098 31.6008C5.76935 33.5189 8.29145 34.1311 10.3973 33.2251L18.3553 39.8364C18.5757 40.0323 18.9104 40.0486 19.1471 39.869L19.4246 39.665L22.469 37.4041L23.726 36.4736C24.0198 36.2532 24.0362 35.8125 23.7505 35.5758L22.0691 34.18C21.7834 33.9433 21.3672 33.927 21.0652 34.1555C20.3306 34.7024 19.3185 34.6779 18.6084 34.0984L14.258 30.5479L15.3598 29.7235C16.0291 29.2256 16.2577 28.3604 15.9883 27.6095C19.3919 25.8383 25.4401 23.3326 31.48 24.0672C31.9779 24.663 32.8839 24.7365 33.4797 24.1814C33.994 23.6917 34.0184 22.8755 33.594 22.3041L28.7947 15.8479C29.8149 14.2726 29.8149 12.1586 28.6233 10.5589C27.4398 8.95909 25.4156 8.35509 23.6117 8.8693L18.8532 2.4702C18.4206 1.91518 17.6289 1.6948 17.0086 2.04577ZM9.43414 30.001C8.65874 30.5805 7.56502 30.4173 6.98551 29.6419L4.15325 25.8302C3.57374 25.0548 3.73699 23.9611 4.51239 23.3815L7.27935 21.3247L12.2011 27.9442L9.43414 30.001Z" fill="white"/>
</svg>
