<svg width="42" height="35" viewBox="0 0 42 35" fill="none" xmlns="http://www.w3.org/2000/svg">
<path d="M34.1573 29.9912H7.49831C6.12037 29.9912 4.99902 31.1126 4.99902 32.4905C4.99902 33.8684 6.12037 34.9898 7.49831 34.9898H34.1573C35.5353 34.9898 36.6566 33.8684 36.6566 32.4905C36.6566 31.1126 35.5353 29.9912 34.1573 29.9912Z" fill="#EE728F"/>
<path d="M38.3224 4.99857C36.4846 4.99857 34.99 6.49318 34.99 8.33095C34.99 9.56562 35.6731 10.6336 36.6745 11.2101C34.7467 15.7754 31.7392 18.5763 28.9283 18.323C25.8026 18.0682 23.2533 14.3725 21.847 8.18931C23.6498 7.73273 24.9928 6.1082 24.9928 4.16548C24.9928 1.86779 23.125 0 20.8273 0C18.5296 0 16.6618 1.86779 16.6618 4.16548C16.6618 6.10828 18.0048 7.73281 19.8076 8.18931C18.4013 14.3725 15.852 18.0682 12.7263 18.323C9.92709 18.5763 6.90623 15.7754 4.98018 11.2101C5.98152 10.6336 6.66468 9.56554 6.66468 8.33095C6.66468 6.49318 5.17007 4.99857 3.3323 4.99857C1.49461 4.99857 0 6.49318 0 8.33095C0 10.0405 1.2996 11.4368 2.95911 11.6266L6.16824 28.3252H35.4865L38.6955 11.6266C40.3551 11.4368 41.6547 10.0405 41.6547 8.33095C41.6547 6.49318 40.1601 4.99857 38.3224 4.99857Z" fill="#EE728F"/>
</svg>
