<svg width="45" height="44" viewBox="0 0 45 44" fill="none" xmlns="http://www.w3.org/2000/svg">
<path d="M43.389 18.6619H41.1336V11.6148C41.08 10.767 40.3819 10.0782 39.5227 10.0252H24.111V0.275879H20.889V10.0252H5.47733C4.61814 10.0782 3.92005 10.767 3.86635 11.6148V18.6619H1.61098C0.698091 18.6619 0 19.3507 0 20.2515V30.7427C0 31.6434 0.698091 32.3322 1.61098 32.3322H3.86635V42.1346C3.92005 42.9824 4.61814 43.6712 5.47733 43.7242H39.5227C40.3819 43.6712 41.08 42.9824 41.1336 42.1346V32.3322H43.389C44.3019 32.3322 45 31.6434 45 30.7427V20.2515C45 19.3507 44.3019 18.6619 43.389 18.6619ZM10.5251 22.4239C10.5251 19.8806 12.6193 17.8141 15.1969 17.8141C17.7745 17.8141 19.8687 19.8806 19.8687 22.4239C19.8687 24.9672 17.7745 27.0337 15.1969 27.0337C12.6193 27.0337 10.5251 24.9672 10.5251 22.4239ZM29.5883 36.2532H15.4117V33.074H29.5883V36.2532ZM34.4749 22.4239C34.4749 24.9672 32.3807 27.0337 29.8031 27.0337C27.1718 27.0337 25.0776 24.9672 25.0239 22.4239C25.0239 19.8276 27.1181 17.7612 29.6957 17.7082C32.2733 17.6552 34.4212 19.7746 34.4749 22.3179C34.4749 22.3709 34.4749 22.3709 34.4749 22.4239Z" fill="#00B2FF"/>
</svg>
