<svg width="28" height="27" viewBox="0 0 28 27" fill="none" xmlns="http://www.w3.org/2000/svg">
<path d="M26.8947 11.4607H25.5025V7.11067C25.4693 6.58736 25.0384 6.16216 24.508 6.12946H14.9946V0.111328H13.0058V6.12946H3.49239C2.96203 6.16216 2.53111 6.58736 2.49796 7.11067V11.4607H1.10576C0.542248 11.4607 0.111328 11.8859 0.111328 12.442V18.918C0.111328 19.474 0.542248 19.8992 1.10576 19.8992H2.49796V25.95C2.53111 26.4734 2.96203 26.8985 3.49239 26.9313H24.508C25.0384 26.8985 25.4693 26.4734 25.5025 25.95V19.8992H26.8947C27.4582 19.8992 27.8891 19.474 27.8891 18.918V12.442C27.8891 11.8859 27.4582 11.4607 26.8947 11.4607ZM6.60828 13.7829C6.60828 12.213 7.90104 10.9374 9.49213 10.9374C11.0832 10.9374 12.376 12.213 12.376 13.7829C12.376 15.3529 11.0832 16.6285 9.49213 16.6285C7.90104 16.6285 6.60828 15.3529 6.60828 13.7829ZM18.3757 22.3195H9.62472V20.3571H18.3757V22.3195ZM21.3922 13.7829C21.3922 15.3529 20.0994 16.6285 18.5083 16.6285C16.8841 16.6285 15.5913 15.3529 15.5582 13.7829C15.5582 12.1803 16.8509 10.9047 18.442 10.872C20.0331 10.8393 21.359 12.1476 21.3922 13.7175C21.3922 13.7502 21.3922 13.7502 21.3922 13.7829Z" fill="white"/>
</svg>
