<svg width="22" height="22" viewBox="0 0 22 22" fill="none" xmlns="http://www.w3.org/2000/svg">
<g id="Group 167">
<circle id="Ellipse 10" cx="11" cy="11" r="11" fill="#00B2FF"/>
<g id="Mask group">
<path id="Vector" d="M16.6753 9.88241H16.0627V7.96838C16.0481 7.73813 15.8585 7.55104 15.6252 7.53665H11.4393V4.88867H10.5642V7.53665H6.37829C6.14493 7.55104 5.95533 7.73813 5.94074 7.96838V9.88241H5.32817C5.08023 9.88241 4.89062 10.0695 4.89062 10.3141V13.1636C4.89062 13.4082 5.08023 13.5953 5.32817 13.5953H5.94074V16.2577C5.95533 16.488 6.14493 16.675 6.37829 16.6894H15.6252C15.8585 16.675 16.0481 16.488 16.0627 16.2577V13.5953H16.6753C16.9232 13.5953 17.1128 13.4082 17.1128 13.1636V10.3141C17.1128 10.0695 16.9232 9.88241 16.6753 9.88241ZM7.74928 10.9042C7.74928 10.2134 8.3181 9.65215 9.01818 9.65215C9.71826 9.65215 10.2871 10.2134 10.2871 10.9042C10.2871 11.595 9.71826 12.1562 9.01818 12.1562C8.3181 12.1562 7.74928 11.595 7.74928 10.9042ZM12.927 14.6603H9.07652V13.7968H12.927V14.6603ZM14.2542 10.9042C14.2542 11.595 13.6854 12.1562 12.9853 12.1562C12.2706 12.1562 11.7018 11.595 11.6872 10.9042C11.6872 10.199 12.256 9.63776 12.9561 9.62337C13.6562 9.60898 14.2396 10.1846 14.2542 10.8754C14.2542 10.8898 14.2542 10.8898 14.2542 10.9042Z" fill="white"/>
</g>
</g>
</svg>
