<svg width="77" height="115" viewBox="0 0 77 115" fill="none" xmlns="http://www.w3.org/2000/svg">
<path d="M19.5508 76.1476H9.96403V68.659H17.0768C18.6849 68.659 19.9837 67.3485 19.9837 65.7259C19.9837 64.1034 18.6849 62.7929 17.0768 62.7929H9.96403V55.554H17.0768C18.6849 55.554 19.9837 54.2434 19.9837 52.6209C19.9837 50.9984 18.6849 49.6879 17.0768 49.6879H9.96403V42.3865H27.9624V55.6163C29.6942 53.9938 31.6734 52.6209 33.7763 51.4976V42.3241C36.0029 42.2617 37.7965 40.3895 37.7965 38.0806V33.213C37.7965 30.8416 35.8792 28.9694 33.5907 28.9694H4.33568C1.98538 28.9694 0.129883 30.904 0.129883 33.213V38.0806C0.129883 40.3895 1.92353 42.1993 4.15013 42.3241V99.4247C4.15013 107.662 10.7681 114.402 18.9323 114.402C27.0965 114.402 33.7763 107.662 33.7763 99.4247V98.4886C25.6121 94.3074 19.9837 85.8827 19.5508 76.0852V76.1476Z" fill="white"/>
<path d="M10.0259 18.7349C9.34555 20.1702 9.90219 21.98 11.3247 22.6665C11.7577 22.8537 12.1906 22.9785 12.6236 22.9785C13.675 22.9785 14.7265 22.3544 15.2213 21.356C16.8912 17.9237 16.8912 13.8674 15.2213 10.4351C14.3554 8.62534 14.3554 6.50356 15.2213 4.69382C15.9635 3.2585 15.345 1.44875 13.9224 0.762297C12.4999 0.0758423 10.7062 0.637505 10.0259 2.07282C8.35595 5.50509 8.35595 9.56141 10.0259 12.9937C10.8918 14.8034 10.8918 16.9252 10.0259 18.7349Z" fill="white"/>
<path d="M22.5816 18.7349C21.8394 20.1702 22.4579 21.98 23.8804 22.6665C24.3134 22.8537 24.7463 22.9785 25.1793 22.9785C26.2307 22.9785 27.2822 22.3544 27.777 21.356C29.4469 17.9237 29.4469 13.8674 27.777 10.4351C26.9111 8.62534 26.9111 6.50356 27.777 4.69382C28.4573 3.2585 27.9007 1.44875 26.4781 0.762297C25.0556 0.0758423 23.2619 0.637505 22.5816 2.07282C20.9116 5.50509 20.9116 9.56141 22.5816 12.9937C23.4475 14.8034 23.4475 16.9252 22.5816 18.7349Z" fill="white"/>
<path d="M74.5353 96.9283L62.4746 86.7563C64.763 83.4488 66.1237 79.3925 66.1237 75.0866C66.1237 63.7288 56.9699 54.4929 45.7132 54.4929C34.4565 54.4929 25.3027 63.7288 25.3027 75.0866C25.3027 86.4443 34.4565 95.6802 45.7132 95.6802C50.0427 95.6802 54.0011 94.3073 57.2792 91.9983L67.3607 104.167C67.3607 104.167 67.7937 104.604 67.9792 104.791C70.144 106.601 73.3602 106.289 75.1538 104.167C76.9475 101.983 76.6382 98.7381 74.5353 96.9283ZM31.1785 75.0866C31.1785 66.9739 37.7346 60.4214 45.7132 60.4214C53.6919 60.4214 60.248 67.0363 60.248 75.0866C60.248 83.1368 53.6919 89.7517 45.7132 89.7517C37.7346 89.7517 31.1785 83.1368 31.1785 75.0866Z" fill="white"/>
<path d="M45.7136 64.9771C44.1055 64.9771 42.8066 66.2876 42.8066 67.9101C42.8066 69.5326 44.1055 70.8431 45.7136 70.8431C48.002 70.8431 49.8575 72.7153 49.8575 75.0243C49.8575 76.6468 51.1564 77.9573 52.7645 77.9573C54.3726 77.9573 55.6714 76.6468 55.6714 75.0243C55.6714 69.4702 51.2182 64.9147 45.6517 64.9147L45.7136 64.9771Z" fill="white"/>
</svg>
