<svg width="76" height="105" viewBox="0 0 76 105" fill="none" xmlns="http://www.w3.org/2000/svg">
<path d="M70.677 0.0683899H4.55931C2.14716 0.0683899 0.167969 2.06534 0.167969 4.49914V100.291C0.167969 102.725 2.14716 104.721 4.55931 104.721H70.677C73.0891 104.721 75.0683 102.725 75.0683 100.291V4.49914C75.0683 2.06534 73.0891 0.0683899 70.677 0.0683899ZM20.0218 91.6789C16.9912 91.6789 14.5172 89.1827 14.5172 86.1248C14.5172 83.067 16.9912 80.5708 20.0218 80.5708C23.0525 80.5708 25.5265 83.067 25.5265 86.1248C25.5265 89.1827 23.0525 91.6789 20.0218 91.6789ZM20.0218 74.4551C16.9912 74.4551 14.5172 71.9589 14.5172 68.9011C14.5172 65.8432 16.9912 63.347 20.0218 63.347C23.0525 63.347 25.5265 65.8432 25.5265 68.9011C25.5265 71.9589 23.0525 74.4551 20.0218 74.4551ZM20.0218 57.2313C16.9912 57.2313 14.5172 54.7351 14.5172 51.6773C14.5172 48.6195 16.9912 46.1232 20.0218 46.1232C23.0525 46.1232 25.5265 48.6195 25.5265 51.6773C25.5265 54.7351 23.0525 57.2313 20.0218 57.2313ZM37.6491 91.6165C34.6184 91.6165 32.1444 89.1203 32.1444 86.0624C32.1444 83.0046 34.6184 80.5084 37.6491 80.5084C40.6797 80.5084 43.1537 83.0046 43.1537 86.0624C43.1537 89.1203 40.6797 91.6165 37.6491 91.6165ZM37.6491 74.3927C34.6184 74.3927 32.1444 71.8965 32.1444 68.8387C32.1444 65.7808 34.6184 63.2846 37.6491 63.2846C40.6797 63.2846 43.1537 65.7808 43.1537 68.8387C43.1537 71.8965 40.6797 74.3927 37.6491 74.3927ZM37.6491 57.1689C34.6184 57.1689 32.1444 54.6727 32.1444 51.6149C32.1444 48.557 34.6184 46.0608 37.6491 46.0608C40.6797 46.0608 43.1537 48.557 43.1537 51.6149C43.1537 54.6727 40.6797 57.1689 37.6491 57.1689ZM55.2763 91.554C52.2457 91.554 49.7717 89.0579 49.7717 86C49.7717 82.9422 52.2457 80.446 55.2763 80.446C58.307 80.446 60.781 82.9422 60.781 86C60.781 89.0579 58.307 91.554 55.2763 91.554ZM55.2763 74.3303C52.2457 74.3303 49.7717 71.8341 49.7717 68.7762C49.7717 65.7184 52.2457 63.2222 55.2763 63.2222C58.307 63.2222 60.781 65.7184 60.781 68.7762C60.781 71.8341 58.307 74.3303 55.2763 74.3303ZM55.2763 57.1065C52.2457 57.1065 49.7717 54.6103 49.7717 51.5525C49.7717 48.4946 52.2457 45.9984 55.2763 45.9984C58.307 45.9984 60.781 48.4946 60.781 51.5525C60.781 54.6103 58.307 57.1065 55.2763 57.1065ZM63.1931 32.3317C63.1931 34.7031 61.2758 36.6377 58.9255 36.6377H16.3727C14.0224 36.6377 12.105 34.7031 12.105 32.3317V16.1689C12.105 13.7975 14.0224 11.8629 16.3727 11.8629H58.9255C61.2758 11.8629 63.1931 13.7975 63.1931 16.1689V32.3317Z" fill="white"/>
</svg>
