<svg width="107" height="108" viewBox="0 0 107 108" fill="none" xmlns="http://www.w3.org/2000/svg">
<path d="M80.9926 56.4854H94.414C95.2799 58.7944 97.4446 60.4794 100.042 60.4794C103.382 60.4794 106.104 57.7335 106.104 54.3636C106.104 50.9938 103.382 48.3104 100.042 48.3104C97.4446 48.3104 95.2799 49.9953 94.414 52.3043H80.9926V42.4443C80.9926 41.633 80.8689 40.8218 80.7452 40.0729H85.1365C86.0024 40.0729 86.8064 39.5113 87.1157 38.6376L89.4041 32.0851H94.3522C95.2181 34.3941 97.3828 36.079 99.9805 36.079C103.32 36.079 106.042 33.3332 106.042 29.9633C106.042 26.5934 103.32 23.91 99.9805 23.91C97.3828 23.91 95.2181 25.595 94.3522 27.8415H87.9198C86.992 27.8415 86.2498 28.4032 85.9406 29.2769L83.6521 35.8294H79.57C77.9619 32.2099 75.055 29.2769 71.4677 27.6543V23.5356L77.9619 21.2266C78.8278 20.9146 79.3226 20.1033 79.3226 19.2297V12.6771C81.6111 11.8035 83.281 9.61931 83.281 6.9983C83.281 3.62843 80.5596 0.945007 77.2197 0.945007C73.8798 0.945007 71.2203 3.69083 71.2203 6.9983C71.2203 9.61931 72.8902 11.8659 75.1168 12.6771V17.7319L68.6226 20.0409C67.7567 20.3529 67.2619 21.1642 67.2619 22.0379V26.4686C66.4578 26.3438 65.7156 26.219 64.9116 26.219H55.1393V12.6771C57.4277 11.8035 59.0977 9.61931 59.0977 6.9983C59.0977 3.62843 56.3763 0.945007 53.0364 0.945007C49.6965 0.945007 47.0369 3.69083 47.0369 6.9983C47.0369 9.61931 48.7069 11.8659 50.9335 12.6771V26.219H41.1612C40.3571 26.219 39.5531 26.3438 38.8109 26.4686V22.0379C38.8109 21.1018 38.2542 20.3529 37.4502 20.0409L30.9559 17.7319V12.6771C33.2444 11.8035 34.9143 9.61931 34.9143 6.9983C34.9143 3.62843 32.1929 0.945007 28.853 0.945007C25.5131 0.945007 22.8536 3.69083 22.8536 6.9983C22.8536 9.61931 24.5235 11.8659 26.7501 12.6771V19.2297C26.7501 20.1033 27.3068 20.9146 28.1108 21.2266L34.6669 23.5356V27.6543C31.0796 29.2769 28.1727 32.2099 26.5027 35.8294H22.4206L20.1322 29.2769C19.8229 28.4032 19.0189 27.8415 18.153 27.8415H11.7206C10.8547 25.5325 8.68993 23.91 6.09223 23.91C2.75233 23.91 0.0927734 26.6558 0.0927734 29.9633C0.0927734 33.2708 2.81418 36.079 6.09223 36.079C8.68993 36.079 10.9165 34.3941 11.7206 32.0851H16.7304L19.0189 38.6376C19.3281 39.5113 20.1322 40.0729 20.9981 40.0729H25.3894C25.2657 40.8842 25.142 41.633 25.142 42.4443V52.3043H11.7206C10.8547 49.9953 8.68993 48.3104 6.09223 48.3104C2.75233 48.3104 0.0927734 51.0562 0.0927734 54.3636C0.0927734 57.6711 2.81418 60.4794 6.09223 60.4794C8.68993 60.4794 10.9165 58.7944 11.7206 56.4854H25.142V66.4078C25.142 67.2191 25.2657 68.0303 25.3894 68.7792H20.9981C20.0703 68.7792 19.2663 69.3409 19.0189 70.1521L16.7304 76.7046H11.7206C10.8547 74.3956 8.68993 72.7107 6.09223 72.7107C2.75233 72.7107 0.0927734 75.4565 0.0927734 78.764C0.0927734 82.0715 2.81418 84.8797 6.09223 84.8797C8.68993 84.8797 10.9165 83.1947 11.7206 80.8858H18.153C19.0807 80.8858 19.8229 80.3241 20.1322 79.5129L22.4206 72.9603H26.5027C28.1108 76.5798 31.0178 79.5129 34.6051 81.1354V85.2541L28.049 87.5631C27.1831 87.8751 26.6883 88.6864 26.6883 89.5601V96.0502C24.3998 96.9238 22.7917 99.108 22.7917 101.791C22.7917 105.161 25.5131 107.845 28.7912 107.845C32.0692 107.845 34.8525 105.099 34.8525 101.791C34.8525 99.1704 33.1825 96.9238 30.8941 96.0502V91.0578L37.3883 88.7488C38.2542 88.4368 38.749 87.6879 38.749 86.7518V82.3211C39.5531 82.4459 40.2953 82.5707 41.0993 82.5707H50.8716V96.0502C48.5832 96.9238 46.9751 99.108 46.9751 101.791C46.9751 105.161 49.6965 107.845 52.9745 107.845C56.2526 107.845 59.0358 105.099 59.0358 101.791C59.0358 99.1704 57.3659 96.9238 55.0774 96.0502V82.5707H64.8497C65.6538 82.5707 66.4578 82.4459 67.2 82.3211V86.7518C67.2 87.6879 67.7567 88.4368 68.5607 88.7488L75.0549 91.0578V96.0502C72.7665 96.9238 71.1584 99.108 71.1584 101.791C71.1584 105.161 73.8798 107.845 77.1578 107.845C80.4359 107.845 83.2191 105.099 83.2191 101.791C83.2191 99.1704 81.5492 96.9238 79.2607 96.0502V89.5601C79.2607 88.6864 78.7041 87.8751 77.9001 87.5631L71.4058 85.2541V81.1354C74.9931 79.5129 77.9 76.5798 79.5081 72.9603H83.5902L85.8787 79.5129C86.1879 80.3865 86.9301 80.8858 87.8579 80.8858H94.2903C95.1562 83.1947 97.3209 84.8797 99.9186 84.8797C103.259 84.8797 105.98 82.1339 105.98 78.8264C105.98 75.5189 103.259 72.7107 99.9186 72.7107C97.3209 72.7107 95.1562 74.3956 94.2903 76.7046H89.3423L87.0539 70.0897C86.7446 69.216 85.9406 68.7168 85.0747 68.7168H80.6833C80.807 67.9055 80.9307 67.1567 80.9307 66.3454V56.423L80.9926 56.4854ZM61.0769 69.5905H44.9959C41.0993 69.5905 37.945 66.4078 37.945 62.4763V46.251C37.945 42.3195 41.0993 39.1368 44.9959 39.1368H61.0769C64.9734 39.1368 68.1278 42.3195 68.1278 46.251V62.4763C68.1278 66.4078 64.9734 69.5905 61.0769 69.5905Z" fill="white"/>
</svg>
