<svg width="108" height="114" viewBox="0 0 108 114" fill="none" xmlns="http://www.w3.org/2000/svg">
<path d="M105.427 81.5141L98.6853 80.8277C98.6853 80.8277 98.2524 80.6405 98.1906 80.3909C97.9432 79.642 97.6339 78.8931 97.2628 78.1443C97.1391 77.8947 97.201 77.645 97.3247 77.4578L101.592 72.1534C102.273 71.2797 102.211 70.094 101.469 69.2828L97.3247 65.1016C96.5825 64.3528 95.3454 64.2904 94.4795 64.9768L89.2223 69.2828C89.2223 69.2828 88.7893 69.47 88.5419 69.3452C87.7997 68.9707 87.0575 68.6587 86.3153 68.4091C86.0679 68.3467 85.9442 68.0971 85.8824 67.9099L85.202 61.1077C85.0783 60.0468 84.1506 59.1732 83.0991 59.1732H77.2852C76.1719 59.1732 75.306 59.9844 75.1823 61.1077L74.502 67.9099C74.502 67.9099 74.3164 68.3467 74.069 68.4091C73.3268 68.6587 72.5846 68.9707 71.8424 69.3452C71.595 69.47 71.3476 69.4076 71.1621 69.2828L65.9048 64.9768C65.0389 64.2904 63.8638 64.3528 63.0598 65.1016L58.9158 69.2828C58.1736 70.0316 58.1117 71.2797 58.7921 72.1534L63.0598 77.4578C63.0598 77.4578 63.2453 77.8947 63.1216 78.1443C62.7505 78.8931 62.4413 79.642 62.1939 80.3909C62.132 80.6405 61.8846 80.7653 61.699 80.8277L54.9574 81.5141C53.9059 81.639 53.04 82.575 53.04 83.6359V89.502C53.04 90.6253 53.8441 91.4989 54.9574 91.6237L61.699 92.3102C61.699 92.3102 62.132 92.4974 62.1939 92.747C62.4413 93.4959 62.7505 94.2448 63.1216 94.9936C63.2453 95.2432 63.1835 95.4928 63.0598 95.68L58.7921 100.985C58.1117 101.858 58.1736 103.044 58.9158 103.855L63.0598 108.036C63.802 108.785 65.0389 108.847 65.9048 108.161L71.1621 103.855C71.1621 103.855 71.595 103.668 71.8424 103.793C72.5846 104.167 73.3268 104.479 74.069 104.729C74.3164 104.791 74.4401 105.041 74.502 105.228L75.1823 112.03C75.306 113.091 76.2338 113.965 77.2852 113.965H83.0991C84.2124 113.965 85.0783 113.153 85.202 112.03L85.8824 105.228C85.8824 105.228 86.0679 104.791 86.3153 104.729C87.0575 104.479 87.7997 104.167 88.5419 103.793C88.7893 103.668 89.0367 103.73 89.2223 103.855L94.4795 108.161C95.3454 108.847 96.5206 108.785 97.3247 108.036L101.469 103.855C102.211 103.106 102.273 101.858 101.592 100.985L97.3247 95.68C97.3247 95.68 97.1391 95.2432 97.2628 94.9936C97.6339 94.2448 97.9432 93.4959 98.1906 92.747C98.2524 92.4974 98.4998 92.3726 98.6853 92.3102L105.427 91.6237C106.478 91.4989 107.344 90.5629 107.344 89.502V83.6359C107.344 82.5126 106.54 81.639 105.427 81.5141ZM80.1922 95.9297C75.0586 95.9297 70.9147 91.7485 70.9147 86.5689C70.9147 81.3893 75.0586 77.2082 80.1922 77.2082C85.3257 77.2082 89.4697 81.3893 89.4697 86.5689C89.4697 91.7485 85.3257 95.9297 80.1922 95.9297Z" fill="white"/>
<path d="M19.2695 18.8597C19.2695 25.225 24.4031 30.4046 30.7118 30.4046C37.0205 30.4046 42.154 25.225 42.154 18.8597C42.154 18.7349 42.154 18.6101 42.154 18.5477H19.3314C19.3314 18.5477 19.3314 18.7349 19.3314 18.8597H19.2695Z" fill="white"/>
<path d="M18.5267 15.8018H42.9575C43.8852 15.8018 44.6274 15.053 44.6274 14.1169C44.6274 13.1808 43.8852 12.432 42.9575 12.432H42.4627C41.7205 8.62525 39.2465 5.50499 35.8447 3.88246L35.5355 5.94183C35.4118 6.62829 34.8551 7.06513 34.2366 7.06513C34.1748 7.06513 34.1129 7.06513 33.9892 7.06513C33.247 6.94032 32.7522 6.25386 32.8759 5.505L33.4326 2.07273C33.5563 1.44868 33.0615 0.887024 32.443 0.887024H28.9794C28.3609 0.887024 27.8661 1.44868 27.9898 2.07273L28.5464 5.505C28.6701 6.25386 28.1753 6.94032 27.4331 7.06513C27.3713 7.06513 27.3094 7.06513 27.1857 7.06513C26.5672 7.06513 26.0106 6.62829 25.8869 5.94183L25.5776 3.88246C22.1759 5.50499 19.7019 8.62525 18.9597 12.432H18.4649C17.5371 12.432 16.7949 13.1808 16.7949 14.1169C16.7949 15.053 17.5371 15.8018 18.4649 15.8018H18.5267Z" fill="white"/>
<path d="M42.9578 42.5111H59.4717V51.6223C59.4717 53.9312 61.3272 55.8034 63.6157 55.8034C65.9041 55.8034 67.7596 53.9312 67.7596 51.6223V42.5111H68.1926C71.0377 42.5111 73.388 40.2022 73.388 37.2691C73.388 34.3361 71.0995 32.0271 68.1926 32.0271H67.7596V22.8536C70.4192 21.4807 72.151 18.7348 72.151 15.7394C72.151 12.744 70.3573 9.87333 67.5741 8.56283C67.4504 8.56283 67.3267 8.56283 67.203 8.56283C67.0793 8.62523 67.0175 8.75006 67.0175 8.87487V13.8673C67.0175 15.8018 65.4712 17.3619 63.5538 17.3619C61.6365 17.3619 60.0902 15.8018 60.0902 13.8673V8.87487C60.0902 8.87487 60.0902 8.62523 59.9047 8.56283C59.781 8.50042 59.6573 8.50042 59.5336 8.56283C56.7504 9.87333 54.9567 12.6816 54.9567 15.7394C54.9567 18.7972 56.6885 21.4807 59.348 22.8536V32.0271H37.8861L33.0618 46.8171L31.8867 37.3939H32.6288C33.0618 37.3939 33.4948 37.0195 33.4948 36.5203V33.8993C33.4948 33.4624 33.1236 33.0256 32.6288 33.0256H28.423C27.9901 33.0256 27.5571 33.4 27.5571 33.8993V36.5203C27.5571 36.9571 27.9282 37.3939 28.423 37.3939H29.1652L27.9901 46.8171L23.3513 32.5888C8.32178 35.2098 1.27091 45.5066 0.961664 46.0058C-0.213486 47.8156 -0.213473 50.1869 1.02353 51.9343L10.0536 64.7273C11.0432 66.1626 12.6513 66.9115 14.2594 66.9115C15.3109 66.9115 16.3623 66.5995 17.2282 65.913C17.4756 65.7258 17.723 65.4762 17.9704 65.2265V68.846L14.7542 107.537C14.5068 110.72 16.8571 113.528 20.0115 113.778C20.197 113.778 20.3207 113.778 20.5062 113.778C23.475 113.778 25.9491 111.469 26.1965 108.473L29.289 71.2798H31.5155L34.608 108.473C34.8554 111.656 37.6387 114.027 40.793 113.778C43.9474 113.528 46.2977 110.72 46.0503 107.537L42.8341 68.846L42.6485 42.3239L42.9578 42.5111ZM18.3415 58.1748L12.0946 49.3133C13.5172 48.0028 15.6201 46.3803 18.4652 45.0697V58.1124L18.3415 58.1748Z" fill="white"/>
</svg>
