<svg width="253" height="257" viewBox="0 0 253 257" fill="none" xmlns="http://www.w3.org/2000/svg">
<path d="M192.25 57.1143C183.232 45.0914 143.407 42.0857 124.621 42.0857C63.0039 39.08 46.3472 74.6476 45.721 92.8072L41.9639 167.95L211.035 171.707C210.409 147.286 208.781 97.3157 207.278 92.8072C205.4 87.1714 203.521 72.1429 192.25 57.1143Z" fill="#00B2FF"/>
<path d="M158.984 147.343H83.6727C80.9893 147.343 78.4283 147.887 76.0957 148.871C69.0976 151.822 64.1539 158.728 64.1175 166.757V166.761C64.0587 180.211 64.1009 193.442 64.2439 206.082C64.2848 209.625 64.3691 216.996 69.5003 220.725C72.6439 223.004 76.6561 223.112 79.5953 223.191L126.553 224.202L173.38 223.191C176.307 223.112 180.318 223.007 183.461 220.728C187.974 217.471 188.656 211.763 188.721 206.082C188.835 196.721 188.891 187.016 188.889 177.236C188.888 160.753 175.472 147.343 158.984 147.343ZM180.394 216.49C178.695 217.721 176.255 217.879 173.252 217.959L126.553 218.97L79.7231 217.959C76.7097 217.879 74.2687 217.721 72.5736 216.492C69.9346 214.574 69.5246 210.325 69.476 206.02C69.3858 198.063 69.3405 189.854 69.3306 181.52H121.823L127.225 195.732C127.621 196.777 128.614 197.419 129.669 197.419C129.979 197.419 130.293 197.365 130.599 197.247C131.95 196.734 132.628 195.224 132.114 193.873L127.419 181.52H183.645C183.632 189.819 183.586 198.055 183.489 206.02C183.439 210.333 183.031 214.586 180.394 216.49Z" fill="#092139"/>
<path d="M252.423 176.618C252.32 172.375 252.191 167.094 249.742 162.49C247.083 157.473 241.747 153.636 235.106 151.962C230.043 150.69 224.813 150.728 219.587 150.876C217.434 150.828 215.219 150.818 212.99 150.884C212.889 141.617 212.77 132.345 212.598 123.046C212.598 123.027 212.608 123.01 212.608 122.991C212.424 113.008 212.208 103.019 211.947 93.0245C211.913 91.8777 211.875 90.7054 211.835 89.5321C211.825 89.2275 211.817 88.9362 211.806 88.6284C211.797 88.385 211.782 88.1363 211.772 87.892C211.724 86.637 211.669 85.3705 211.593 84.0771C211.552 83.3634 211.485 82.6423 211.433 81.9244C211.375 81.1405 211.33 80.3651 211.255 79.5731C210.681 73.3709 209.57 67.0932 207.236 61.1497C207.208 61.0788 207.19 61.0053 207.162 60.9351C206.967 60.4446 206.711 59.9722 206.498 59.4868C206.061 58.4844 205.643 57.4756 205.129 56.502C203.922 54.211 202.481 52.021 200.842 49.9392C202.635 49.4078 204.48 48.7512 206.197 47.7418C209.338 45.8947 211.509 43.1049 212.154 40.0878C212.761 37.2469 212.084 34.0893 210.251 31.1922C208.76 28.8316 206.724 26.9411 204.928 25.2729C201.224 21.8291 197.491 18.7149 192.556 18.4134C188.568 18.1579 184.393 19.9973 181.102 23.4284C178.569 26.0642 176.886 29.1701 175.305 32.2224C172.945 31.3576 170.508 30.5912 167.984 29.9583C164.596 29.1047 161.179 28.4759 157.737 28.0167C154.195 27.5412 150.638 27.2534 147.069 27.0887C148.362 20.9611 147.312 14.5657 144.095 9.57914C140.144 3.45288 133.145 -0.146736 126.196 0.361656C119.765 0.84961 113.697 4.88098 110.362 10.8821C107.76 15.563 106.86 21.3325 107.785 27.0293C101.835 27.2317 95.9363 27.7395 90.0872 28.8425C89.171 29.0149 88.2623 29.2397 87.3504 29.4416C86.5637 29.6153 85.775 29.7615 84.9899 29.9583C82.6534 30.5436 80.3889 31.242 78.1906 32.0282C76.6389 29.0379 74.9753 26.0083 72.4972 23.4284C69.2042 19.9948 65.031 18.1554 61.0418 18.4134C56.106 18.7149 52.3736 21.8291 48.6692 25.2729C46.8732 26.9411 44.8384 28.8316 43.3464 31.1896C41.5121 34.0893 40.8364 37.2495 41.4431 40.0878C42.0882 43.1049 44.2597 45.8947 47.4008 47.7418C48.9561 48.6564 50.6162 49.2765 52.2492 49.7836C51.2979 50.978 50.4283 52.2164 49.6162 53.4819C48.9769 54.4748 48.3653 55.4807 47.8159 56.5147C43.9037 63.9164 42.3735 72.0565 41.6882 80.0461C41.3047 84.468 41.1712 88.8449 41.0548 93.0219C40.8578 100.42 40.7208 107.833 40.568 115.242C40.5148 117.825 40.4414 120.408 40.3931 122.991C40.393 123 40.3976 123.007 40.3976 123.016C40.2255 132.31 40.1051 141.596 40.0026 150.883C37.7943 150.817 35.6135 150.826 33.5682 150.876C27.9758 150.718 22.9405 150.685 17.8731 151.962C11.2321 153.636 5.89655 157.473 3.23835 162.488C0.78708 167.096 0.659343 172.377 0.557153 176.61C0.518832 177.967 0.483066 179.359 0.483066 180.716L0.46646 181.824C0.456242 182.233 0.4473 182.639 0.4473 183.056C0.0805357 198.166 -0.0160653 213.163 0.158614 227.641C0.190549 229.677 0.258249 233.913 3.38397 236.151C5.31918 237.579 7.71807 237.633 9.30584 237.671L33.5541 238.21L40.2667 238.053C40.8468 243.641 42.4765 248.763 46.9243 251.995C51.0796 255.01 56.313 255.15 60.5296 255.263L92.3501 255.948C103.712 256.19 115.076 256.433 126.555 256.686C137.8 256.435 149.043 256.195 160.282 255.955L192.441 255.263C196.645 255.15 201.877 255.01 206.028 251.998C210.484 248.784 212.115 243.655 212.693 238.052L219.582 238.21L243.675 237.671C245.261 237.633 247.66 237.579 249.547 236.187C252.724 233.954 252.786 229.846 252.821 227.641C252.821 227.639 252.821 227.639 252.821 227.636C253.035 212.027 252.927 196.205 252.496 180.68C252.496 179.326 252.46 177.974 252.423 176.618ZM184.876 27.051C187.103 24.7287 189.775 23.4795 192.236 23.6353C195.444 23.832 198.386 26.3356 201.367 29.105C203.006 30.6276 204.701 32.2039 205.829 33.9896C206.912 35.6988 207.351 37.5228 207.037 38.9944C206.699 40.5808 205.425 42.1239 203.545 43.2301C201.616 44.3644 199.252 44.989 196.961 45.5881C192.36 41.0257 186.668 37.1652 180.172 34.2033C181.517 31.6252 182.953 29.0532 184.876 27.051ZM114.935 13.4215C117.388 9.00943 121.965 5.93098 126.592 5.57843C131.536 5.20032 136.818 7.94922 139.698 12.4149C142.333 16.5006 143.049 21.8617 141.717 26.9309C137.406 26.8693 133.076 26.9529 128.731 27.0851C128.017 27.1059 127.305 27.1225 126.59 27.1455C125.845 27.1219 125.105 27.1053 124.362 27.0835C120.585 26.9705 116.831 26.9031 113.098 26.9232C112.154 22.1366 112.79 17.2823 114.935 13.4215ZM46.5603 38.9944C46.2448 37.5228 46.6854 35.6988 47.7687 33.9871C48.8966 32.2039 50.5916 30.6276 52.2305 29.105C55.2119 26.3356 58.1537 23.832 61.3611 23.6353C63.8124 23.4973 66.4949 24.7313 68.7226 27.051C70.5893 28.9954 71.997 31.4777 73.309 33.9801C66.6745 36.9429 60.8582 40.8382 56.1562 45.4598C54.0175 44.8968 51.8474 44.2855 50.0526 43.2301C48.1723 42.1239 46.8988 40.5808 46.5603 38.9944ZM33.5503 232.978L9.42464 232.439C8.44106 232.416 7.09344 232.385 6.45859 231.918C5.44819 231.195 5.40732 228.648 5.39071 227.57C5.22577 213.977 5.31151 199.908 5.6275 185.672H39.7648C39.7511 189.498 39.7447 193.354 39.7465 197.243C39.7469 197.534 39.7476 197.825 39.7481 198.116C39.756 209.087 39.8201 220.34 39.9512 232.209C39.9512 232.416 39.9524 232.62 39.955 232.827L33.5503 232.978ZM202.961 247.76C200.326 249.673 196.73 249.913 192.314 250.031L160.171 250.726C148.93 250.966 137.685 251.203 126.555 251.454C115.191 251.201 103.826 250.961 92.4612 250.718L60.6573 250.031C56.2274 249.913 52.6303 249.671 49.9977 247.762C46.4464 245.181 45.5037 240.114 45.2676 234.678C45.257 234.487 45.2567 234.297 45.2484 234.108C45.2262 233.468 45.2074 232.826 45.1999 232.181C45.0723 220.886 45.0006 209.53 44.9802 198.136C44.98 197.826 44.9787 197.511 44.9786 197.201C44.9682 190.408 45.0142 183.58 45.0416 176.762C45.0616 169.953 45.0964 163.149 45.1667 156.334C45.2679 145.755 45.4044 135.17 45.5963 124.579C45.9101 124.159 46.1373 123.67 46.1515 123.106L46.2218 119.778C46.2435 118.567 46.2652 117.356 46.2984 116.145C46.596 104.993 46.9345 92.3526 52.4374 81.9062C58.2193 71.0544 69.861 62.6359 84.493 58.5365L91.2004 81.4566C91.5351 82.596 92.5787 83.3369 93.7105 83.3369C93.9532 83.3369 94.201 83.3037 94.4462 83.2321C95.8334 82.8259 96.628 81.3723 96.223 79.9851L89.5796 57.2837C101.369 54.8462 113.759 54.9547 126.591 55.3472C140.445 54.9206 153.929 54.7877 166.708 58.0067C182.229 61.8976 194.546 70.6067 200.5 81.896C206.009 92.3526 206.386 104.998 206.718 116.145C206.75 117.366 206.773 118.587 206.795 119.811L206.864 123.104C206.877 123.654 207.096 124.133 207.398 124.548C207.624 137.036 207.796 149.503 207.893 161.924C207.899 162.573 207.905 163.22 207.91 163.883C207.97 172.028 207.972 180.125 207.976 188.223C207.987 192.626 207.986 197.043 207.976 201.471C207.943 211.756 207.881 222.01 207.758 232.181C207.756 232.309 207.75 232.436 207.748 232.564C207.741 233.43 207.718 234.295 207.659 235.191C207.386 240.438 206.402 245.277 202.961 247.76ZM247.589 227.559C247.56 229.455 247.412 231.292 246.491 231.941C245.886 232.385 244.538 232.416 243.556 232.439L219.73 232.973L219.584 232.978L212.988 232.825C212.991 232.63 212.992 232.436 212.992 232.242C213.127 222.016 213.186 211.741 213.209 201.488C213.223 197.09 213.211 192.671 213.208 188.255C213.206 187.396 213.211 186.529 213.208 185.672H247.35C247.674 199.602 247.781 213.657 247.589 227.559Z" fill="#092139"/>
<path d="M153.522 72.9596C161.015 71.7282 168.862 73.5599 175.047 77.9643C181.232 82.3661 185.526 89.1796 186.829 96.6598C187.051 97.9321 188.156 98.8263 189.404 98.8263C189.552 98.8263 189.704 98.8135 189.856 98.7879C191.279 98.5401 192.232 97.1836 191.984 95.7606C190.446 86.9365 185.378 78.8968 178.08 73.703C170.784 68.5067 161.526 66.3607 152.681 67.7939C151.256 68.0264 150.287 69.3702 150.52 70.7983C150.751 72.2212 152.097 73.1895 153.522 72.9596Z" fill="#092139"/>
<path d="M191.335 102.109C189.89 102.109 188.719 103.279 188.719 104.725V106.437C188.719 107.883 189.89 109.053 191.335 109.053C192.779 109.053 193.951 107.883 193.951 106.437V104.725C193.951 103.279 192.779 102.109 191.335 102.109Z" fill="#092139"/>
<path d="M221.112 78.6209C221.078 77.1749 219.814 76.1223 218.439 76.061C216.995 76.0942 215.849 77.2899 215.88 78.7333L216.849 123.393C216.881 124.818 218.046 125.952 219.464 125.952H219.521C220.966 125.919 222.112 124.724 222.081 123.28L221.112 78.6209Z" fill="#092139"/>
<path d="M218.988 130.152C217.543 130.152 216.372 131.322 216.372 132.768V137.686C216.372 139.132 217.543 140.302 218.988 140.302C220.433 140.302 221.604 139.132 221.604 137.686V132.768C221.604 131.322 220.433 130.152 218.988 130.152Z" fill="#092139"/>
<path d="M42.1084 48.5746C40.9269 47.7366 39.2969 48.0074 38.459 49.1877C30.28 60.6636 26.6012 75.2664 28.3691 89.2485C28.5364 90.5719 29.663 91.5375 30.9608 91.5375C31.0707 91.5375 31.1818 91.5299 31.293 91.5171C32.7262 91.3357 33.7417 90.0277 33.5603 88.5945C31.9559 75.9 35.2937 62.6435 42.7203 52.2227C43.5582 51.0475 43.2849 49.4125 42.1084 48.5746Z" fill="#092139"/>
<path d="M29.1321 99.7741L28.7221 104.689C28.602 106.128 29.6712 107.392 31.112 107.512C31.1861 107.52 31.2589 107.523 31.3318 107.523C32.6781 107.523 33.8226 106.49 33.9363 105.124L34.3463 100.208C34.4664 98.7701 33.3973 97.5055 31.9564 97.3854C30.5015 97.2296 29.2522 98.3332 29.1321 99.7741Z" fill="#092139"/>
</svg>
